<svg width="177" height="28" viewBox="0 0 177 28" fill="none" xmlns="http://www.w3.org/2000/svg">
<path d="M20.9092 23.8555C19.9863 24.9606 18.6818 25.8208 16.9956 26.436C15.3094 27.0399 13.4409 27.3418 11.3901 27.3418C9.23682 27.3418 7.34554 26.8747 5.71631 25.9404C4.09847 24.9948 2.84521 23.6276 1.95654 21.8389C1.07926 20.0501 0.629232 17.9481 0.606445 15.5327V13.8408C0.606445 11.3571 1.0223 9.20947 1.854 7.39795C2.6971 5.57503 3.90479 4.18506 5.47705 3.22803C7.06071 2.2596 8.91211 1.77539 11.0312 1.77539C13.9821 1.77539 16.2892 2.48177 17.9526 3.89453C19.616 5.2959 20.6016 7.34098 20.9092 10.0298H15.9189C15.6911 8.60563 15.1841 7.56315 14.3979 6.90234C13.6232 6.24154 12.5522 5.91113 11.1851 5.91113C9.44189 5.91113 8.11458 6.56624 7.20312 7.87646C6.29167 9.18669 5.83024 11.1349 5.81885 13.7212V15.3105C5.81885 17.9196 6.31445 19.8906 7.30566 21.2236C8.29688 22.5566 9.74951 23.2231 11.6636 23.2231C13.589 23.2231 14.9619 22.813 15.7822 21.9927V17.7031H11.1167V13.9263H20.9092V23.8555ZM23.9854 17.5835C23.9854 15.7492 24.3385 14.1143 25.0449 12.6787C25.7513 11.2432 26.7653 10.1323 28.0869 9.34619C29.4199 8.56006 30.9637 8.16699 32.7183 8.16699C35.2134 8.16699 37.2471 8.93034 38.8193 10.457C40.403 11.9837 41.286 14.0573 41.4683 16.6777L41.5024 17.9424C41.5024 20.7793 40.7106 23.0579 39.127 24.7783C37.5433 26.4873 35.4185 27.3418 32.7524 27.3418C30.0864 27.3418 27.9559 26.4873 26.3608 24.7783C24.7772 23.0693 23.9854 20.7451 23.9854 17.8057V17.5835ZM28.9243 17.9424C28.9243 19.6969 29.2547 21.0413 29.9155 21.9756C30.5763 22.8984 31.522 23.3599 32.7524 23.3599C33.9487 23.3599 34.883 22.9041 35.5552 21.9927C36.2274 21.0698 36.5635 19.6001 36.5635 17.5835C36.5635 15.8631 36.2274 14.5301 35.5552 13.5845C34.883 12.6388 33.9373 12.166 32.7183 12.166C31.5106 12.166 30.5763 12.6388 29.9155 13.5845C29.2547 14.5187 28.9243 15.9714 28.9243 17.9424ZM43.7754 17.5835C43.7754 15.7492 44.1286 14.1143 44.835 12.6787C45.5413 11.2432 46.5553 10.1323 47.877 9.34619C49.21 8.56006 50.7537 8.16699 52.5083 8.16699C55.0034 8.16699 57.0371 8.93034 58.6094 10.457C60.193 11.9837 61.076 14.0573 61.2583 16.6777L61.2925 17.9424C61.2925 20.7793 60.5007 23.0579 58.917 24.7783C57.3333 26.4873 55.2085 27.3418 52.5425 27.3418C49.8765 27.3418 47.7459 26.4873 46.1509 24.7783C44.5672 23.0693 43.7754 20.7451 43.7754 17.8057V17.5835ZM48.7144 17.9424C48.7144 19.6969 49.0448 21.0413 49.7056 21.9756C50.3664 22.8984 51.312 23.3599 52.5425 23.3599C53.7388 23.3599 54.673 22.9041 55.3452 21.9927C56.0174 21.0698 56.3535 19.6001 56.3535 17.5835C56.3535 15.8631 56.0174 14.5301 55.3452 13.5845C54.673 12.6388 53.7274 12.166 52.5083 12.166C51.3006 12.166 50.3664 12.6388 49.7056 13.5845C49.0448 14.5187 48.7144 15.9714 48.7144 17.9424ZM63.5654 17.6177C63.5654 14.7352 64.2091 12.4395 65.4966 10.7305C66.7954 9.02148 68.5671 8.16699 70.8115 8.16699C72.6117 8.16699 74.0985 8.83919 75.272 10.1836V0.75H80.228V27H75.7676L75.5283 25.0347C74.2979 26.5728 72.7142 27.3418 70.7773 27.3418C68.6012 27.3418 66.8524 26.4873 65.5308 24.7783C64.2205 23.0579 63.5654 20.6711 63.5654 17.6177ZM68.5044 17.9766C68.5044 19.7083 68.8063 21.0356 69.4102 21.9585C70.014 22.8813 70.8913 23.3428 72.042 23.3428C73.5687 23.3428 74.6453 22.6991 75.272 21.4116V14.1143C74.6567 12.8268 73.5915 12.1831 72.0762 12.1831C69.695 12.1831 68.5044 14.1143 68.5044 17.9766ZM91.0801 2.11719L97.4717 20.1641L103.829 2.11719H110.562V27H105.418V20.1982L105.931 8.45752L99.2148 27H95.6943L88.9951 8.47461L89.5078 20.1982V27H84.3809V2.11719H91.0801ZM113.946 17.5835C113.946 15.7492 114.299 14.1143 115.006 12.6787C115.712 11.2432 116.726 10.1323 118.048 9.34619C119.381 8.56006 120.925 8.16699 122.679 8.16699C125.174 8.16699 127.208 8.93034 128.78 10.457C130.364 11.9837 131.247 14.0573 131.429 16.6777L131.463 17.9424C131.463 20.7793 130.672 23.0579 129.088 24.7783C127.504 26.4873 125.379 27.3418 122.713 27.3418C120.047 27.3418 117.917 26.4873 116.322 24.7783C114.738 23.0693 113.946 20.7451 113.946 17.8057V17.5835ZM118.885 17.9424C118.885 19.6969 119.216 21.0413 119.876 21.9756C120.537 22.8984 121.483 23.3599 122.713 23.3599C123.91 23.3599 124.844 22.9041 125.516 21.9927C126.188 21.0698 126.524 19.6001 126.524 17.5835C126.524 15.8631 126.188 14.5301 125.516 13.5845C124.844 12.6388 123.898 12.166 122.679 12.166C121.472 12.166 120.537 12.6388 119.876 13.5845C119.216 14.5187 118.885 15.9714 118.885 17.9424ZM140.418 3.96289V8.50879H143.58V12.1318H140.418V21.3604C140.418 22.0439 140.549 22.5339 140.812 22.8301C141.074 23.1263 141.575 23.2744 142.315 23.2744C142.862 23.2744 143.347 23.2345 143.768 23.1548V26.8975C142.8 27.1937 141.803 27.3418 140.777 27.3418C137.314 27.3418 135.548 25.5929 135.479 22.0952V12.1318H132.779V8.50879H135.479V3.96289H140.418ZM145.05 17.5835C145.05 15.7492 145.403 14.1143 146.109 12.6787C146.816 11.2432 147.83 10.1323 149.151 9.34619C150.484 8.56006 152.028 8.16699 153.783 8.16699C156.278 8.16699 158.312 8.93034 159.884 10.457C161.467 11.9837 162.35 14.0573 162.533 16.6777L162.567 17.9424C162.567 20.7793 161.775 23.0579 160.191 24.7783C158.608 26.4873 156.483 27.3418 153.817 27.3418C151.151 27.3418 149.02 26.4873 147.425 24.7783C145.842 23.0693 145.05 20.7451 145.05 17.8057V17.5835ZM149.989 17.9424C149.989 19.6969 150.319 21.0413 150.98 21.9756C151.641 22.8984 152.586 23.3599 153.817 23.3599C155.013 23.3599 155.947 22.9041 156.62 21.9927C157.292 21.0698 157.628 19.6001 157.628 17.5835C157.628 15.8631 157.292 14.5301 156.62 13.5845C155.947 12.6388 155.002 12.166 153.783 12.166C152.575 12.166 151.641 12.6388 150.98 13.5845C150.319 14.5187 149.989 15.9714 149.989 17.9424ZM176 13.1401C175.327 13.049 174.735 13.0034 174.222 13.0034C172.354 13.0034 171.129 13.6357 170.548 14.9004V27H165.609V8.50879H170.274L170.411 10.7134C171.402 9.01579 172.775 8.16699 174.53 8.16699C175.077 8.16699 175.589 8.24105 176.068 8.38916L176 13.1401Z" fill="white"/>
</svg>
