<svg width="117" height="55" viewBox="0 0 117 55" fill="none" xmlns="http://www.w3.org/2000/svg">
<path fill-rule="evenodd" clip-rule="evenodd" d="M65.9899 49.7453C65.0434 50.2612 64.02 50.4202 62.9292 50.4276C54.1001 50.4869 45.2773 50.2781 36.4616 49.8398C34.2033 49.7273 31.9483 49.5573 29.6935 49.3873L29.6933 49.3873L29.6931 49.3873L29.6928 49.3873C28.864 49.3248 28.0351 49.2623 27.2062 49.2027C25.8788 49.1076 24.7426 48.6078 23.8189 47.7129C23.2041 47.1173 22.5393 46.5794 21.8133 46.1066C19.1944 44.4019 18.1805 42.0263 18.4236 39.1031C18.6956 39.1351 18.6971 39.2996 18.6985 39.4468C18.6988 39.4872 18.6992 39.5263 18.7051 39.5609C19.2166 42.5431 21.4349 44.5043 24.6615 44.7422C33.2838 45.3772 41.9176 45.7924 50.5688 45.7432C53.0344 45.7291 55.5006 45.5922 57.9639 45.4555H57.964H57.964H57.964L58.5043 45.4255C60.3357 45.3245 61.6675 44.2222 61.9019 42.7354C62.1434 41.2022 61.2689 39.6945 59.773 39.1443C59.1661 38.921 58.525 38.8736 57.8476 38.8235C57.4368 38.7931 57.0128 38.7618 56.5749 38.6896C57.0762 37.9139 57.7362 37.3651 58.4692 36.8941C61.0401 35.2423 63.9553 34.3731 66.9497 33.6922C67.3484 33.6016 67.7482 33.5145 68.1999 33.4162C68.437 33.3645 68.6884 33.3097 68.9616 33.2497C68.29 33.0795 67.7649 33.1836 67.2688 33.282L67.2687 33.282C67.143 33.307 67.0191 33.3316 66.8951 33.3512C64.1595 33.7839 61.4947 34.4466 58.9761 35.5611C57.6065 36.1672 56.4226 36.9945 55.5326 38.1479C55.2982 38.452 55.0839 38.6094 54.6507 38.5819C42.7918 37.831 30.9185 37.8747 19.0431 38.0251C19.0075 38.0255 18.9718 38.0197 18.9007 38.0083L18.9006 38.0083L18.9005 38.0083L18.9005 38.0083C18.8518 38.0004 18.7866 37.9899 18.6936 37.9769C19.0984 37.2365 19.7001 36.7727 20.3982 36.401C21.8029 35.6527 23.3042 35.116 24.8465 34.6742C29.0486 33.4701 33.3813 32.8743 37.7195 32.3312C40.1609 32.0252 42.6149 31.7709 45.0724 31.6329C45.8997 31.5863 46.3295 31.1351 46.7583 30.6851C46.9662 30.4668 47.1739 30.2487 47.4266 30.0773L47.6003 30.1915C47.1641 30.9459 47.6877 30.9628 48.2077 30.9796C48.239 30.9806 48.2703 30.9816 48.3013 30.9828C49.3265 31.0219 50.3517 31.0627 51.3768 31.1035L51.3783 31.1035L51.3798 31.1036L51.3813 31.1036C53.7605 31.1982 56.1399 31.2928 58.5198 31.3678C63.9074 31.5369 69.2968 31.517 74.6861 31.4642C75.0512 31.4608 75.4169 31.448 75.7818 31.4303C77.4573 31.3497 77.6455 31.1757 77.6949 29.6094C77.711 29.0983 77.7212 28.587 77.7314 28.0757C77.7473 27.2807 77.7632 26.4858 77.8011 25.6918C77.8242 25.2103 77.6554 25.0602 77.1472 25.0444L75.955 25.0069C68.8057 24.7811 61.6569 24.5553 54.5131 25.1697C54.1522 25.2007 53.7921 25.2385 53.432 25.2763L53.4318 25.2763C53.1572 25.3051 52.8827 25.3339 52.6078 25.3597C52.5546 25.3647 52.5 25.356 52.3935 25.3389C52.3244 25.3278 52.2334 25.3133 52.1068 25.2967C53.3597 24.7836 54.4927 24.6167 55.6274 24.4721C60.7411 23.8202 65.8862 23.7645 71.0315 23.8616C73.0604 23.8997 75.088 23.9915 77.1158 24.0833C78.555 24.1484 79.9942 24.2135 81.434 24.2595C83.6268 24.3296 85.4181 25.1626 86.9428 26.5777C88.1567 27.7041 89.2383 28.9331 90.0647 30.3331C90.3549 30.8246 90.6912 30.9887 91.278 30.9809C92.1909 30.9688 93.0966 31.1184 93.9696 31.3811C96.8352 32.2432 98.1127 34.6089 97.1382 37.2789C96.8178 38.1569 96.2463 38.8996 95.6733 39.6443C95.5233 39.8392 95.3732 40.0343 95.2275 40.2319C95.3395 39.4849 95.4004 38.7559 95.3474 38.0191C95.3184 37.6178 95.1582 37.2924 94.7483 37.14C94.3082 36.9764 93.9229 37.099 93.5836 37.4045C93.161 37.7847 92.8509 38.2274 92.597 38.7199L92.496 38.9161L92.4958 38.9166C92.0304 39.8204 91.5645 40.7254 91.0493 41.6044C89.7966 43.7396 87.9011 45.1799 85.4383 45.9639C82.0179 47.0526 78.596 48.1382 75.1633 49.1924C74.6033 49.3642 74.3362 49.6104 74.2315 50.162C73.9912 51.4297 73.5081 52.5991 72.5616 53.5967C72.1803 53.9987 71.8036 54.22 71.2596 54.2262C69.1891 54.2498 67.1192 54.2347 65.066 53.951C63.7575 53.77 62.6882 52.243 62.9658 51.0339C63.0374 50.7229 63.2415 50.7349 63.439 50.7466C63.4978 50.7501 63.5561 50.7536 63.6101 50.7484C64.5274 50.6611 65.411 50.4988 66.1442 49.9259L66.1821 49.9136C66.3708 49.8525 66.6265 49.7697 66.4799 49.5744C66.3678 49.425 66.2336 49.5417 66.1081 49.6509C66.0675 49.6862 66.0277 49.7208 65.9899 49.7453ZM74.5949 48.7874C75.2431 47.9473 75.7916 47.0757 76.2155 46.1407C76.7317 45.0025 77.0438 43.8245 76.8853 42.5774C76.6526 40.7429 74.7053 39.7914 73.14 40.6843C74.6519 43.2289 74.8045 45.964 74.5949 48.7874ZM69.3388 51.8098C69.3103 51.7994 69.2776 51.7874 69.2426 51.7711C69.1976 52.125 69.325 52.4306 69.4508 52.7323C69.5605 52.9955 69.669 53.2557 69.6608 53.5426C68.6261 52.4225 68.5127 51.077 68.3979 49.7149C68.3552 49.2081 68.3123 48.699 68.2217 48.1984C68.03 48.2392 67.9085 48.3711 67.7762 48.5148C67.6035 48.7023 67.4124 48.9098 67.023 48.9602C67.6727 48.1074 68.2389 47.37 68.8043 46.6573C69.6466 45.5953 70.2631 44.4412 70.8427 43.2578C71.1221 42.6874 71.4214 42.1333 71.8566 41.6511C72.4352 41.0092 72.648 41.025 73.0461 41.8019C73.5643 42.8134 73.7646 43.9095 73.8862 45.0102C74.1368 47.2778 73.824 49.4815 72.8992 51.6004C72.5925 52.3035 72.2443 52.947 71.2742 53.0061C70.3329 53.0632 69.8134 52.583 69.4409 51.8674C69.4278 51.8425 69.3901 51.8287 69.3388 51.8098ZM62.5167 44.8539C65.6042 45.0963 67.1579 43.799 67.1667 41.0442C67.1692 40.1745 67.4889 39.4451 68.1624 38.8421C69.0718 38.0281 70.133 37.436 71.254 36.9126C74.282 35.4991 77.5449 34.8608 80.8483 34.3686C81.9292 34.2074 83.0163 34.0848 84.1037 33.9622C84.5912 33.9073 85.0788 33.8523 85.5659 33.7938C85.3764 33.6788 85.1971 33.6584 85.0177 33.6586C81.0889 33.6621 77.182 33.9364 73.307 34.5439C70.4522 34.9912 67.6714 35.6732 65.0882 36.9412C63.7901 37.5785 62.9605 38.5873 63.0878 39.9362C63.248 41.6261 63.3131 43.2637 62.5167 44.8539ZM85.1507 32.1697C84.7972 32.1574 84.4589 32.1455 84.1465 32.1732C83.8515 32.1732 83.5782 32.1749 83.3197 32.1766C82.7869 32.1799 82.3164 32.1829 81.8466 32.1695C80.6158 32.1342 79.7157 31.4932 79.5749 30.3644C79.4395 29.2801 79.374 28.188 79.3085 27.096C79.279 26.6047 79.2495 26.1135 79.2137 25.6229C79.1791 25.1455 79.4776 25.1668 79.7616 25.187C79.8327 25.192 79.9028 25.197 79.9666 25.1941C83.8625 25.0202 86.4504 26.826 88.1778 29.928C88.881 31.1905 88.8012 31.3936 87.3691 31.9385C86.6258 32.2213 85.8579 32.1945 85.1507 32.1697Z" fill="white"/>
<path fill-rule="evenodd" clip-rule="evenodd" d="M57.9975 1.61035C76.9844 1.99353 92.4005 9.0365 103.88 23.2418C109.87 30.6528 113.27 39.0664 114.383 48.2874C114.591 50.0107 114.677 51.7384 114.755 53.4698C114.787 54.1827 114.528 54.3122 113.84 54.2964C112.192 54.259 112.174 54.2895 112.113 52.7646C111.742 43.4229 108.963 34.7714 103.418 26.9657C95.7986 16.241 85.3379 9.10649 71.9941 5.73854C65.274 4.04261 58.4477 3.67672 51.5385 4.48195C40.951 5.71557 31.5648 9.56262 23.4749 15.9954C13.6538 23.8048 7.59569 33.7131 5.24606 45.5649C4.72503 48.1932 4.42506 50.8481 4.48354 53.5257C4.49647 54.1099 4.33075 54.304 3.67547 54.2978C1.78568 54.2803 1.74669 54.3074 1.82053 52.576C2.34446 40.2952 6.81052 29.432 15.3737 20.0717C21.161 13.7456 28.1813 8.95308 36.3983 5.72694C41.9865 3.53308 47.8211 2.23058 53.8748 1.79785C55.2425 1.70012 56.6082 1.6224 57.9975 1.61035Z" fill="white"/>
<path fill-rule="evenodd" clip-rule="evenodd" d="M55.2093 0.0038789C72.3938 0.0343335 84.9781 4.28047 95.8536 12.8082C105.182 20.1225 111.443 29.3003 114.604 40.2937C115.848 44.6197 116.435 49.0316 116.526 53.5028C116.532 53.7989 116.808 54.3111 116.082 54.2859C115.391 54.2618 115.653 53.7616 115.647 53.46C115.478 44.9151 113.404 36.7938 108.993 29.3031C100.551 14.968 87.8166 5.58002 70.649 2.11252C51.9471 -1.66476 35.0564 2.41842 20.5229 14.0905C10.2958 22.3039 4.13832 32.7965 1.74385 45.1967C1.21358 47.9423 0.977695 50.7102 0.907999 53.4957C0.900446 53.7987 1.14998 54.3084 0.442554 54.2855C-0.199075 54.2644 0.0446129 53.8028 0.0489993 53.5244C0.224454 42.2166 3.78839 31.9357 10.8673 22.7432C17.4193 14.2343 25.8722 7.92614 36.2833 3.97205C43.2887 1.31138 50.5821 -0.0836211 55.2093 0.0038789Z" fill="white"/>
<path fill-rule="evenodd" clip-rule="evenodd" d="M48.4023 17.9193C51.9579 14.032 55.5201 10.1493 59.0604 6.24996C59.4442 5.82724 59.6452 5.85201 60.0258 6.252C62.0476 8.37518 64.1138 10.4618 66.1309 12.5884C66.514 12.9925 66.7177 12.9845 67.1111 12.62C68.3859 11.4395 69.7128 10.3086 70.9888 9.12928C71.4048 8.74497 71.6493 8.71678 72.0589 9.15747C73.5543 10.7663 75.1178 12.3204 76.6067 13.9343C77.0325 14.3956 77.3529 14.4225 77.9075 14.1552C79.0941 13.5838 80.331 13.1043 81.5321 12.5579C82.009 12.3411 82.4179 12.3206 82.9024 12.5618C92.7142 17.4422 100.261 24.3333 104.757 33.9379C104.958 34.3694 105.217 34.795 105.232 35.3399C104.862 35.265 104.845 34.9804 104.742 34.7872C99.8516 25.6629 92.3297 18.9847 82.7707 14.1918C82.3796 13.9954 82.0648 13.9954 81.6704 14.1736C80.2487 14.8152 78.799 15.404 77.3851 16.0595C76.9008 16.2838 76.6238 16.28 76.2474 15.8659C74.8291 14.3072 73.3435 12.8025 71.9191 11.2486C71.5434 10.8388 71.3286 10.8472 70.9276 11.2145C69.6457 12.3877 68.3033 13.5036 67.0263 14.6816C66.614 15.0618 66.4123 15.0275 66.0565 14.6332C64.0775 12.4388 62.0525 10.2806 60.0865 8.07633C59.6295 7.56405 59.4071 7.58428 58.9277 8.0554C55.7211 11.207 52.4793 14.3277 49.2459 17.4556C49.0368 17.6579 48.8024 17.8368 48.5798 18.0266L48.4023 17.9193Z" fill="white"/>
<path fill-rule="evenodd" clip-rule="evenodd" d="M48.238 21.2792C46.4165 19.7417 44.5692 18.2294 42.7887 16.6517C42.241 16.1663 41.9373 16.1969 41.4046 16.6472C39.9398 17.8856 38.3886 19.0356 36.9281 20.2785C36.4037 20.7249 36.0848 20.6749 35.5874 20.2792C34.0834 19.0824 32.5184 17.9517 31.0217 16.7469C30.4743 16.3063 30.1027 16.2349 29.4821 16.6738C21.7855 22.1156 15.3151 28.5105 11.2918 36.832C11.2421 36.9349 11.1882 37.0371 11.1234 37.1317C11.0949 37.173 11.0332 37.1945 10.918 37.2697C10.9209 36.5749 11.2301 36.0033 11.4628 35.4286C13.58 30.204 16.8837 25.6846 20.9937 21.6631C23.6029 19.1104 26.4646 16.8233 29.5523 14.7804C30.131 14.3974 30.5045 14.3353 31.0895 14.8263C32.6042 16.0967 34.2183 17.264 35.7594 18.5079C36.1673 18.8369 36.4076 18.8306 36.8222 18.5185C38.408 17.3247 40.0322 16.1756 41.638 15.0049C41.9427 14.7829 42.1889 14.5963 42.5503 14.9754C44.4485 16.9656 46.3691 18.9372 48.2773 20.919C48.3301 20.974 48.3355 21.069 48.3633 21.1454C48.3213 21.1899 48.2798 21.2347 48.238 21.2792Z" fill="white"/>
<path fill-rule="evenodd" clip-rule="evenodd" d="M53.5449 43.7377C53.6157 43.0507 53.7127 42.4881 53.7223 41.9241C53.7393 40.9148 53.1351 40.3417 52.0541 40.3103C46.3026 40.1437 40.5518 39.964 34.7995 39.8293C32.1613 39.7679 29.5318 39.6152 26.8945 39.439C27.014 39.0558 27.3366 39.1539 27.5897 39.134C34.9185 38.5567 42.2468 38.592 49.5729 39.1734C50.3904 39.2383 51.201 39.3744 52.0156 39.4738C53.7435 39.6858 54.5398 40.6946 54.1732 42.272C54.0607 42.7551 53.9703 43.2688 53.5449 43.7377Z" fill="white"/>
<path fill-rule="evenodd" clip-rule="evenodd" d="M51.0268 44.4765C50.1572 44.546 49.2889 44.6466 48.4175 44.6796C41.3475 44.9456 34.3042 44.6477 27.2914 43.762C26.2085 43.6252 25.5836 42.967 25.6102 42.0572C25.9198 41.9924 25.9468 42.2472 26.0399 42.4042C26.3532 42.9322 26.8233 43.1339 27.4666 43.1364C34.7433 43.1646 42.0021 43.5544 49.2527 44.0991C49.856 44.1445 50.457 44.2212 51.059 44.2829C51.0484 44.3477 51.0376 44.4124 51.0268 44.4765Z" fill="white"/>
<path fill-rule="evenodd" clip-rule="evenodd" d="M91.3283 41.8528C91.3003 43.8749 91.0851 45.6675 91.8527 47.3624C91.9456 47.5675 92.08 47.7584 92.2181 47.9406C92.251 47.9841 92.3771 47.966 92.5309 47.9848C91.3576 46.0144 91.5473 43.9489 91.7257 41.7852C92.1232 42.081 92.0043 42.4124 92.0117 42.6897C92.0434 43.8834 92.0891 45.0774 92.4493 46.2303C92.6056 46.7313 92.738 47.359 93.4845 47.3599C94.1393 47.3608 94.2131 46.7677 94.4308 46.3495C94.5214 46.1758 94.5868 45.9908 94.678 45.7777C94.9362 46.5445 94.6018 47.3514 93.8806 47.7996C93.356 48.1255 92.7589 48.2573 92.152 48.2793C91.0281 48.3208 89.899 48.3554 88.7768 48.3027C87.3605 48.2364 86.8224 47.7135 86.5105 46.3978C86.4255 46.038 86.5155 45.8998 86.8486 45.7536C88.6923 44.9449 90.0774 43.6572 91.3283 41.8528Z" fill="white"/>
<path fill-rule="evenodd" clip-rule="evenodd" d="M31.3227 50.2545C31.366 50.3281 31.4092 50.4017 31.4525 50.4754C33.2905 52.3344 36.6435 52.4626 38.5203 50.7447C38.609 50.7216 38.6928 50.6806 38.6275 50.5868C38.6127 50.566 38.4852 50.6136 38.4093 50.6294C36.0759 51.8454 33.802 51.7732 31.5896 50.3574C31.521 50.3077 31.4525 50.2582 31.3839 50.2087C31.3716 50.137 31.3522 50.032 31.2557 50.0921C31.1694 50.1457 31.2424 50.2186 31.3227 50.2545Z" fill="white"/>
<path fill-rule="evenodd" clip-rule="evenodd" d="M29.2031 49.709C32.7461 49.9084 36.2638 50.1061 39.7764 50.3039C39.4815 51.2987 36.9447 52.5548 35.0869 52.6068C32.151 52.6884 29.9103 51.6037 29.2031 49.709Z" fill="white"/>
<path fill-rule="evenodd" clip-rule="evenodd" d="M54.998 13.633C55.7885 12.5526 56.7259 11.5853 57.6489 10.6051C57.9769 10.2566 58.1939 10.2732 58.5064 10.6105C59.2819 11.4469 60.1407 12.2219 60.857 13.0987C61.315 13.6594 61.6833 13.6985 62.2612 13.3248C62.5654 13.1282 62.8863 12.8903 63.4815 12.8894C62.7799 13.4346 62.1937 13.8744 61.6283 14.336C61.3074 14.5982 61.1432 14.3664 60.9511 14.1932C60.1852 13.5044 59.3586 12.8628 58.6767 12.1073C58.1455 11.5187 57.8314 11.6335 57.3393 12.1053C56.6849 12.7325 55.9677 13.3048 55.1639 13.771C55.1086 13.7248 55.0533 13.6789 54.998 13.633Z" fill="white"/>
<path fill-rule="evenodd" clip-rule="evenodd" d="M94.2523 44.974C94.2754 43.3783 94.3061 41.7134 94.082 39.8984C94.7907 41.0344 94.803 44.3156 94.2523 44.974Z" fill="white"/>
<path fill-rule="evenodd" clip-rule="evenodd" d="M94.8125 45.0402C94.8886 44.3562 94.9645 43.6721 95.0407 42.9883C95.1787 43.6831 95.2249 44.3699 94.8125 45.0402Z" fill="white"/>
<path fill-rule="evenodd" clip-rule="evenodd" d="M91.875 41.3645C91.9003 41.1704 91.9109 40.9859 91.9268 40.9855C92.0929 40.9811 91.9828 41.1033 91.9993 41.1697C92.0064 41.1988 91.957 41.2403 91.875 41.3645Z" fill="white"/>
<path fill-rule="evenodd" clip-rule="evenodd" d="M55.1645 13.7708C55.0854 13.9019 54.9857 13.9749 54.8242 13.8771C54.8825 13.7955 54.9407 13.7142 54.9987 13.6328C55.054 13.6787 55.1093 13.7246 55.1645 13.7708Z" fill="white"/>
<path fill-rule="evenodd" clip-rule="evenodd" d="M48.2105 18.3623C48.1542 18.4053 48.0654 18.4952 48.0472 18.484C47.8852 18.3861 48.0464 18.3258 48.0916 18.251C48.1301 18.2893 48.1698 18.3263 48.2105 18.3623Z" fill="white"/>
<path fill-rule="evenodd" clip-rule="evenodd" d="M48.3973 18.1947C48.3349 18.2504 48.2726 18.3058 48.2102 18.3613C48.1697 18.3256 48.1301 18.2885 48.0918 18.2504C48.1529 18.1829 48.2143 18.1154 48.2755 18.0479C48.3163 18.097 48.3568 18.1458 48.3973 18.1947Z" fill="white"/>
<path fill-rule="evenodd" clip-rule="evenodd" d="M48.2754 18.0493C48.3178 18.0059 48.3607 17.9623 48.4029 17.9189C48.4621 17.9548 48.5215 17.9906 48.581 18.0265C48.5201 18.0833 48.4589 18.1399 48.3977 18.1967C48.3568 18.1477 48.3161 18.0984 48.2754 18.0493Z" fill="white"/>
<path fill-rule="evenodd" clip-rule="evenodd" d="M47.8203 29.9129C48.0623 29.7365 48.2608 29.5278 48.3792 29.2598L48.3796 29.2601C48.395 29.2447 48.4154 29.226 48.4357 29.2075L48.4358 29.2074C48.4793 29.1677 48.5227 29.128 48.5168 29.1197C48.4372 29.0109 48.3791 29.0647 48.321 29.1184L48.321 29.1184C48.3053 29.133 48.2896 29.1475 48.2734 29.1588L48.2734 29.1588C48.1149 29.3306 47.9564 29.5027 47.7984 29.6751L47.7986 29.6766L47.7986 29.6767L47.7986 29.6768C47.8059 29.7555 47.8132 29.8342 47.8203 29.9129ZM47.7982 29.676L47.7981 29.675L47.7622 29.7147L47.7621 29.7148L47.7618 29.7152C47.7075 29.7751 47.6532 29.8352 47.5992 29.8956L47.5994 29.8959L47.4277 30.0769C47.4859 30.1154 47.5442 30.1536 47.6021 30.1915C47.6163 30.176 47.6305 30.1604 47.6447 30.1449C47.6756 30.1109 47.7067 30.0768 47.7378 30.0429L47.7371 30.0421C47.7933 30.0151 47.821 29.9721 47.82 29.9128C47.8129 29.8339 47.8056 29.755 47.7982 29.676L47.7982 29.676Z" fill="white"/>
<path fill-rule="evenodd" clip-rule="evenodd" d="M73.2541 45.3008C73.233 45.5804 73.2087 45.86 73.1912 46.1398C73.077 47.9676 72.714 49.7354 71.7385 51.3542C71.5761 51.6233 71.4447 51.9276 71.0309 51.9345C70.5733 51.9423 70.3967 51.6221 70.2635 51.3111C70.0618 50.8411 69.8748 50.3585 69.7551 49.866C69.5445 49.0007 69.3902 48.1239 69.2123 47.2517C69.088 48.772 69.0784 50.2721 69.7453 51.6854C69.9794 52.1813 70.3608 52.5491 70.9736 52.569C71.5808 52.5892 71.97 52.2674 72.2634 51.78C73.489 49.7404 73.7719 47.5769 73.2541 45.3008Z" fill="white"/>
<path fill-rule="evenodd" clip-rule="evenodd" d="M65.9902 49.7438C66.145 49.6436 66.3318 49.375 66.4804 49.5728C66.6367 49.7816 66.3337 49.8618 66.1448 49.9243C66.0934 49.8641 66.0416 49.804 65.9902 49.7438Z" fill="white"/>
<path fill-rule="evenodd" clip-rule="evenodd" d="M31.3221 50.2558C31.2424 50.2192 31.1692 50.146 31.256 50.0921C31.3527 50.0318 31.3722 50.1372 31.3845 50.2093L31.3221 50.2558Z" fill="white"/>
<path fill-rule="evenodd" clip-rule="evenodd" d="M31.3842 50.208C31.453 50.2577 31.5216 50.3077 31.5904 50.3574C31.545 50.397 31.4991 50.4363 31.4532 50.4759C31.4096 50.402 31.3662 50.3279 31.3223 50.2543C31.3218 50.2545 31.3842 50.208 31.3842 50.208Z" fill="white"/>
<path fill-rule="evenodd" clip-rule="evenodd" d="M38.4102 50.6303C38.4864 50.6142 38.6144 50.5663 38.6292 50.5872C38.6948 50.6814 38.6107 50.7226 38.5216 50.7461C38.4809 50.7104 38.4437 50.6717 38.4102 50.6303Z" fill="white"/>
<path fill-rule="evenodd" clip-rule="evenodd" d="M73.2541 45.3008C73.7719 47.5769 73.489 49.7404 72.2634 51.78C71.97 52.2674 71.5808 52.5892 70.9736 52.569C70.3608 52.5491 69.9794 52.1813 69.7453 51.6854C69.0784 50.2721 69.088 48.772 69.2123 47.2517C69.3902 48.1239 69.5445 49.0007 69.7551 49.866C69.8748 50.3585 70.0618 50.8411 70.2635 51.3111C70.3967 51.6221 70.5733 51.9423 71.0309 51.9345C71.4447 51.9276 71.5761 51.6233 71.7385 51.3542C72.714 49.7354 73.077 47.9676 73.1912 46.1398C73.2087 45.86 73.233 45.5804 73.2541 45.3008Z" fill="white"/>
</svg>
