<svg width="19" height="19" viewBox="0 0 19 19" fill="none" xmlns="http://www.w3.org/2000/svg">
<path fill-rule="evenodd" clip-rule="evenodd" d="M2.16372 2.72621C3.52289 1.48219 5.35856 0.771781 7.281 0.745805C9.27774 0.719762 11.201 1.43413 12.6127 2.72621C15.204 5.10284 15.4963 8.85898 13.2993 11.5475L19 16.7626L17.5073 18.1281L11.8086 12.9149C8.86882 14.9254 4.76145 14.6572 2.16372 12.285C-0.721241 9.64522 -0.721241 5.36595 2.16372 2.72621ZM11.12 4.09174C10.1491 3.20309 8.83776 2.69565 7.46449 2.67716C6.03835 2.65863 4.66472 3.1689 3.65643 4.09174C1.59574 5.97727 1.59574 9.03389 3.65643 10.9194C5.71756 12.8045 9.05885 12.8045 11.12 10.9194C13.1807 9.03389 13.1807 5.97727 11.12 4.09174Z" fill="white"/>
</svg>
