<svg width="44" height="22" viewBox="0 0 44 22" fill="none" xmlns="http://www.w3.org/2000/svg">
<path fill-rule="evenodd" clip-rule="evenodd" d="M20.5961 0.00155156C27.0069 0.0137334 31.7015 1.71219 35.7587 5.12328C39.2386 8.049 41.5743 11.7201 42.7537 16.1175C43.2178 17.8479 43.4368 19.6126 43.4708 21.4011C43.473 21.5196 43.5758 21.7244 43.3052 21.7144C43.0474 21.7047 43.1449 21.5046 43.1427 21.384C43.0798 17.966 42.3059 14.7175 40.6603 11.7212C37.511 5.98719 32.7605 2.23201 26.356 0.845006C19.3792 -0.665903 13.078 0.967367 7.65619 5.63619C3.84092 8.92155 1.54382 13.1186 0.650552 18.0787C0.452734 19.1769 0.364734 20.2841 0.338734 21.3983C0.335916 21.5195 0.429006 21.7233 0.165097 21.7142C-0.074266 21.7057 0.0166431 21.5211 0.0182794 21.4098C0.0837339 16.8867 1.41328 12.7743 4.0541 9.09727C6.49837 5.69374 9.65177 3.17046 13.5357 1.58882C16.1491 0.524551 18.8699 -0.0334484 20.5961 0.00155156Z" fill="white"/>
</svg>
