<svg width="27" height="25" viewBox="0 0 27 25" fill="none" xmlns="http://www.w3.org/2000/svg">
<path d="M26.209 8.54491H23.4251L17.3345 0.931651C17.0616 0.590618 16.5639 0.535194 16.2227 0.808147C15.8815 1.08105 15.8262 1.57881 16.0992 1.91995L21.3991 8.54491H5.60087L10.9009 1.91995C11.1738 1.57881 11.1185 1.08099 10.7774 0.808147C10.4362 0.535194 9.93843 0.590565 9.66558 0.931651L3.57492 8.54491H0.791016C0.354164 8.54491 0 8.89908 0 9.33593V12.5C0 12.9368 0.354164 13.291 0.791016 13.291H1.77641L4.77657 23.7915C4.87355 24.1311 5.18395 24.3652 5.53711 24.3652H21.4629C21.8161 24.3652 22.1264 24.1311 22.2235 23.7915L25.2236 13.291H26.209C26.6458 13.291 27 12.9368 27 12.5V9.33593C27 8.89908 26.6458 8.54491 26.209 8.54491ZM20.8663 22.7832H6.13375L3.42172 13.291H23.5783L20.8663 22.7832ZM25.418 11.709C22.7082 11.709 4.14914 11.709 1.58203 11.709V10.1269H25.418V11.709Z" fill="white"/>
</svg>
