<svg width="335" height="85" viewBox="0 0 335 85" fill="none" xmlns="http://www.w3.org/2000/svg">
<path d="M18.2188 9.33398C18.2188 8.14518 17.7533 7.21419 16.8223 6.54102C15.8913 5.85352 14.6595 5.50977 13.127 5.50977C11.752 5.50977 10.6061 5.85352 9.68945 6.54102C8.78711 7.21419 8.33594 8.09505 8.33594 9.18359H1.89062C1.89062 7.49349 2.36328 5.97526 3.30859 4.62891C4.26823 3.26823 5.62174 2.20833 7.36914 1.44922C9.13086 0.690104 11.0501 0.310547 13.127 0.310547C16.7363 0.310547 19.5651 1.08398 21.6133 2.63086C23.6615 4.17773 24.6855 6.36914 24.6855 9.20508C24.6855 10.5944 24.263 11.8835 23.418 13.0723C22.5872 14.2611 21.3984 15.2135 19.8516 15.9297C21.5703 16.5312 22.888 17.4479 23.8047 18.6797C24.7214 19.8971 25.1797 21.4154 25.1797 23.2344C25.1797 26.0417 24.0768 28.276 21.8711 29.9375C19.6797 31.5846 16.765 32.4082 13.127 32.4082C10.8496 32.4082 8.80143 32.0215 6.98242 31.248C5.16341 30.4603 3.78125 29.3932 2.83594 28.0469C1.90495 26.6862 1.43945 25.1107 1.43945 23.3203H7.92773C7.92773 24.4375 8.41471 25.3757 9.38867 26.1348C10.3626 26.8796 11.6087 27.252 13.127 27.252C14.8457 27.252 16.1992 26.8652 17.1875 26.0918C18.1901 25.3184 18.6914 24.3372 18.6914 23.1484C18.6914 21.5156 18.2474 20.3483 17.3594 19.6465C16.4714 18.9303 15.1751 18.5723 13.4707 18.5723H9.625V13.5234H13.5996C16.679 13.4805 18.2188 12.084 18.2188 9.33398ZM47.6094 25.5547H36.3086L34.1602 32H27.3066L38.9512 0.71875H44.9238L56.6328 32H49.7793L47.6094 25.5547ZM38.0488 20.334H45.8691L41.9375 8.625L38.0488 20.334ZM85.0352 32H78.5684V5.93945H66.043V32H59.5977V0.71875H85.0352V32ZM115.672 0.71875V32H109.205V20.1406C107.243 20.556 105.195 20.7637 103.061 20.7637C99.0931 20.7637 96.0781 19.8971 94.0156 18.1641C91.9674 16.431 90.9147 13.9245 90.8574 10.6445V0.71875H97.3242V10.5156C97.3385 12.306 97.7682 13.5951 98.6133 14.3828C99.4727 15.1706 100.955 15.5645 103.061 15.5645C105.195 15.5645 107.243 15.3568 109.205 14.9414V0.71875H115.672ZM139.348 25.5547H128.047L125.898 32H119.045L130.689 0.71875H136.662L148.371 32H141.518L139.348 25.5547ZM129.787 20.334H137.607L133.676 8.625L129.787 20.334ZM175.377 21.5801C175.133 24.946 173.887 27.5957 171.639 29.5293C169.404 31.4629 166.454 32.4297 162.787 32.4297C158.777 32.4297 155.618 31.0833 153.312 28.3906C151.021 25.6836 149.875 21.974 149.875 17.2617V15.3496C149.875 12.3418 150.405 9.69206 151.465 7.40039C152.525 5.10872 154.036 3.35417 155.998 2.13672C157.975 0.904948 160.266 0.289062 162.873 0.289062C166.482 0.289062 169.39 1.25586 171.596 3.18945C173.801 5.12305 175.076 7.83724 175.42 11.332H168.975C168.817 9.3125 168.251 7.85156 167.277 6.94922C166.318 6.03255 164.85 5.57422 162.873 5.57422C160.725 5.57422 159.113 6.34766 158.039 7.89453C156.979 9.42708 156.435 11.8118 156.406 15.0488V17.4121C156.406 20.7923 156.915 23.263 157.932 24.8242C158.963 26.3854 160.581 27.166 162.787 27.166C164.778 27.166 166.26 26.7148 167.234 25.8125C168.223 24.8958 168.788 23.485 168.932 21.5801H175.377ZM202.512 5.93945H192.93V32H186.484V5.93945H177.031V0.71875H202.512V5.93945ZM224.963 0.71875H231.43V32H224.963V11.2246L212.438 32H205.992V0.71875H212.438V21.5371L224.963 0.71875ZM258.178 19.2168H254.461V32H248.016V0.71875H254.461V13.2441H257.404L265.053 0.71875H272.916L263.27 15.5215L273.926 32H266.234L258.178 19.2168ZM20.4531 77.5547H9.15234L7.00391 84H0.150391L11.7949 52.7188H17.7676L29.4766 84H22.623L20.4531 77.5547ZM10.8926 72.334H18.7129L14.7812 60.625L10.8926 72.334ZM32.3984 84V52.7188H43.3555C47.151 52.7188 50.0299 53.4492 51.9922 54.9102C53.9544 56.3568 54.9355 58.4837 54.9355 61.291C54.9355 62.8236 54.5417 64.1771 53.7539 65.3516C52.9661 66.5117 51.8704 67.3639 50.4668 67.9082C52.071 68.3092 53.3314 69.1185 54.248 70.3359C55.179 71.5534 55.6445 73.043 55.6445 74.8047C55.6445 77.8125 54.6849 80.0898 52.7656 81.6367C50.8464 83.1836 48.1107 83.9714 44.5586 84H32.3984ZM38.8438 70.3789V78.8223H44.3652C45.8835 78.8223 47.0651 78.4642 47.9102 77.748C48.7695 77.0176 49.1992 76.015 49.1992 74.7402C49.1992 71.8757 47.7168 70.4219 44.752 70.3789H38.8438ZM38.8438 65.8242H43.6133C46.8646 65.7669 48.4902 64.4707 48.4902 61.9355C48.4902 60.5176 48.0749 59.5007 47.2441 58.8848C46.4277 58.2546 45.1315 57.9395 43.3555 57.9395H38.8438V65.8242ZM83.4453 57.9395H73.8633V84H67.418V57.9395H57.9648V52.7188H83.4453V57.9395ZM112.234 69.0684C112.234 72.1478 111.69 74.8477 110.602 77.168C109.513 79.4883 107.952 81.2786 105.918 82.5391C103.898 83.7995 101.578 84.4297 98.957 84.4297C96.3646 84.4297 94.0514 83.8066 92.0176 82.5605C89.9837 81.3145 88.4082 79.5384 87.291 77.2324C86.1738 74.9121 85.6081 72.248 85.5938 69.2402V67.6934C85.5938 64.6139 86.1452 61.9069 87.248 59.5723C88.3652 57.2233 89.9336 55.4258 91.9531 54.1797C93.987 52.9193 96.3073 52.2891 98.9141 52.2891C101.521 52.2891 103.834 52.9193 105.854 54.1797C107.887 55.4258 109.456 57.2233 110.559 59.5723C111.676 61.9069 112.234 64.6068 112.234 67.6719V69.0684ZM105.703 67.6504C105.703 64.3704 105.116 61.8783 103.941 60.1738C102.767 58.4694 101.091 57.6172 98.9141 57.6172C96.7513 57.6172 95.0827 58.4622 93.9082 60.1523C92.7337 61.8281 92.1393 64.2917 92.125 67.543V69.0684C92.125 72.2624 92.7122 74.7402 93.8867 76.502C95.0612 78.2637 96.7513 79.1445 98.957 79.1445C101.12 79.1445 102.781 78.2995 103.941 76.6094C105.102 74.9049 105.689 72.4271 105.703 69.1758V67.6504ZM125.34 52.7188L133.375 75.4062L141.367 52.7188H149.832V84H143.365V75.4492L144.01 60.6895L135.566 84H131.141L122.719 60.7109L123.363 75.4492V84H116.918V52.7188H125.34ZM181.156 69.0684C181.156 72.1478 180.612 74.8477 179.523 77.168C178.435 79.4883 176.874 81.2786 174.84 82.5391C172.82 83.7995 170.5 84.4297 167.879 84.4297C165.286 84.4297 162.973 83.8066 160.939 82.5605C158.906 81.3145 157.33 79.5384 156.213 77.2324C155.096 74.9121 154.53 72.248 154.516 69.2402V67.6934C154.516 64.6139 155.067 61.9069 156.17 59.5723C157.287 57.2233 158.855 55.4258 160.875 54.1797C162.909 52.9193 165.229 52.2891 167.836 52.2891C170.443 52.2891 172.756 52.9193 174.775 54.1797C176.809 55.4258 178.378 57.2233 179.48 59.5723C180.598 61.9069 181.156 64.6068 181.156 67.6719V69.0684ZM174.625 67.6504C174.625 64.3704 174.038 61.8783 172.863 60.1738C171.689 58.4694 170.013 57.6172 167.836 57.6172C165.673 57.6172 164.005 58.4622 162.83 60.1523C161.656 61.8281 161.061 64.2917 161.047 67.543V69.0684C161.047 72.2624 161.634 74.7402 162.809 76.502C163.983 78.2637 165.673 79.1445 167.879 79.1445C170.042 79.1445 171.703 78.2995 172.863 76.6094C174.023 74.9049 174.611 72.4271 174.625 69.1758V67.6504ZM206.25 57.9395H192.285V63.998H197.312C200.993 63.998 203.908 64.8932 206.057 66.6836C208.219 68.4596 209.301 70.8587 209.301 73.8809C209.301 76.9173 208.227 79.3594 206.078 81.207C203.944 83.0404 201.101 83.9714 197.549 84H185.775V52.7188H206.25V57.9395ZM192.285 69.1973V78.8223H197.42C199.067 78.8223 200.378 78.3711 201.352 77.4688C202.34 76.5664 202.834 75.3561 202.834 73.8379C202.834 72.4199 202.361 71.3027 201.416 70.4863C200.485 69.6556 199.203 69.2259 197.57 69.1973H192.285ZM232.182 52.7188H238.648V84H232.182V63.2246L219.656 84H213.211V52.7188H219.656V73.5371L232.182 52.7188ZM270.059 52.7188V84H263.592V57.9395H255.256L254.74 68.9824C254.525 72.7064 254.053 75.6426 253.322 77.791C252.592 79.9251 251.525 81.4935 250.121 82.4961C248.717 83.4844 246.798 83.9857 244.363 84H242.688V78.8223L243.762 78.7148C245.38 78.5 246.533 77.569 247.221 75.9219C247.923 74.2604 248.367 71.3099 248.553 67.0703L249.09 52.7188H270.059ZM290.146 84V72.7207H284.904L279.254 84H272.293L278.975 70.6582C275.752 68.8822 274.141 66.125 274.141 62.3867C274.141 59.3216 275.143 56.9512 277.148 55.2754C279.154 53.5996 281.954 52.7474 285.549 52.7188H296.613V84H290.146ZM280.586 62.8594C280.586 64.6068 281.008 65.8743 281.854 66.6621C282.713 67.4499 283.995 67.8438 285.699 67.8438H290.146V57.9395H285.699C282.29 57.9395 280.586 59.5794 280.586 62.8594ZM310.363 52.7188L318.398 75.4062L326.391 52.7188H334.855V84H328.389V75.4492L329.033 60.6895L320.59 84H316.164L307.742 60.7109L308.387 75.4492V84H301.941V52.7188H310.363Z" fill="white"/>
</svg>
