<svg width="743" height="46" viewBox="0 0 743 46" fill="none" xmlns="http://www.w3.org/2000/svg">
<path d="M34.5 45.3906H27.1172V37H8.53125V45.3672H0.914062L0.328125 30.6719H2.74219C4.00781 29.8281 5.02344 28.3828 5.78906 26.3359C6.57031 24.2734 7.125 21.3203 7.45312 17.4766L8.50781 2.875H31.7344V30.6719H35.3672L34.5 45.3906ZM12.0469 30.6719H23.5312V9.22656H16.2656L15.6328 17.7578C15.1641 23.2891 13.9688 27.5938 12.0469 30.6719ZM36.8438 24.0859C36.8438 21.5547 37.3359 19.3047 38.3203 17.3359C39.3047 15.3516 40.7188 13.8281 42.5625 12.7656C44.4062 11.7031 46.5703 11.1719 49.0547 11.1719C52.8516 11.1719 55.8438 12.3516 58.0312 14.7109C60.2188 17.0547 61.3125 20.25 61.3125 24.2969V24.5781C61.3125 28.5312 60.2109 31.6719 58.0078 34C55.8203 36.3125 52.8516 37.4688 49.1016 37.4688C45.4922 37.4688 42.5938 36.3906 40.4062 34.2344C38.2188 32.0625 37.0391 29.125 36.8672 25.4219L36.8438 24.0859ZM44.7422 24.5781C44.7422 26.9219 45.1094 28.6406 45.8438 29.7344C46.5781 30.8281 47.6641 31.375 49.1016 31.375C51.9141 31.375 53.3516 29.2109 53.4141 24.8828V24.0859C53.4141 19.5391 51.9609 17.2656 49.0547 17.2656C46.4141 17.2656 44.9844 19.2266 44.7656 23.1484L44.7422 24.5781ZM75.5156 31.375C76.625 31.375 77.4844 31.0781 78.0938 30.4844C78.7031 29.875 79 29.0312 78.9844 27.9531H86.3906C86.3906 30.7344 85.3906 33.0156 83.3906 34.7969C81.4062 36.5781 78.8438 37.4688 75.7031 37.4688C72.0156 37.4688 69.1094 36.3125 66.9844 34C64.8594 31.6875 63.7969 28.4844 63.7969 24.3906V24.0625C63.7969 21.5 64.2656 19.2422 65.2031 17.2891C66.1562 15.3203 67.5234 13.8125 69.3047 12.7656C71.0859 11.7031 73.1953 11.1719 75.6328 11.1719C78.9297 11.1719 81.5469 12.0859 83.4844 13.9141C85.4219 15.7422 86.3906 18.2188 86.3906 21.3438H78.9844C78.9844 20.0312 78.6641 19.0234 78.0234 18.3203C77.3828 17.6172 76.5234 17.2656 75.4453 17.2656C73.3984 17.2656 72.2031 18.5703 71.8594 21.1797C71.75 22.0078 71.6953 23.1484 71.6953 24.6016C71.6953 27.1484 72 28.9141 72.6094 29.8984C73.2188 30.8828 74.1875 31.375 75.5156 31.375ZM111.938 17.6875H103.945V37H96V17.6875H88.125V11.6406H111.938V17.6875ZM128.812 37C128.531 36.4844 128.281 35.7266 128.062 34.7266C126.609 36.5547 124.578 37.4688 121.969 37.4688C119.578 37.4688 117.547 36.75 115.875 35.3125C114.203 33.8594 113.367 32.0391 113.367 29.8516C113.367 27.1016 114.383 25.0234 116.414 23.6172C118.445 22.2109 121.398 21.5078 125.273 21.5078H127.711V20.1719C127.711 17.8438 126.703 16.6797 124.688 16.6797C122.812 16.6797 121.875 17.6016 121.875 19.4453H113.977C113.977 16.9922 115.016 15 117.094 13.4688C119.188 11.9375 121.852 11.1719 125.086 11.1719C128.32 11.1719 130.875 11.9609 132.75 13.5391C134.625 15.1172 135.586 17.2812 135.633 20.0312V31.2578C135.664 33.5859 136.023 35.3672 136.711 36.6016V37H128.812ZM123.867 31.8438C124.852 31.8438 125.664 31.6328 126.305 31.2109C126.961 30.7891 127.43 30.3125 127.711 29.7812V25.7266H125.414C122.664 25.7266 121.289 26.9609 121.289 29.4297C121.289 30.1484 121.531 30.7344 122.016 31.1875C122.5 31.625 123.117 31.8438 123.867 31.8438ZM140.555 37V11.6406H151.43C154.914 11.6406 157.578 12.25 159.422 13.4688C161.281 14.6875 162.211 16.4453 162.211 18.7422C162.211 19.9141 161.805 20.9688 160.992 21.9062C160.18 22.8281 158.992 23.5391 157.43 24.0391C159.445 24.3828 161 25.0547 162.094 26.0547C163.188 27.0391 163.734 28.2734 163.734 29.7578C163.734 32.1484 162.828 33.9531 161.016 35.1719C159.219 36.375 156.625 36.9844 153.234 37H140.555ZM148.477 26.6641V30.9531H153.094C154.078 30.9531 154.781 30.7812 155.203 30.4375C155.625 30.0938 155.836 29.5703 155.836 28.8672C155.836 27.4609 155.023 26.7266 153.398 26.6641H148.477ZM148.477 21.7891H151.734C152.688 21.7891 153.352 21.6328 153.727 21.3203C154.117 20.9922 154.312 20.5156 154.312 19.8906C154.312 19.0781 154.078 18.5078 153.609 18.1797C153.141 17.8516 152.414 17.6875 151.43 17.6875H148.477V21.7891ZM177.797 28.1406H175.43V37H167.508V11.6406H175.43V20.7578H177.703L181.734 11.6406H191.859L184.453 23.3594H184.477L192.609 37H181.898L177.797 28.1406ZM208.781 37C208.5 36.4844 208.25 35.7266 208.031 34.7266C206.578 36.5547 204.547 37.4688 201.938 37.4688C199.547 37.4688 197.516 36.75 195.844 35.3125C194.172 33.8594 193.336 32.0391 193.336 29.8516C193.336 27.1016 194.352 25.0234 196.383 23.6172C198.414 22.2109 201.367 21.5078 205.242 21.5078H207.68V20.1719C207.68 17.8438 206.672 16.6797 204.656 16.6797C202.781 16.6797 201.844 17.6016 201.844 19.4453H193.945C193.945 16.9922 194.984 15 197.062 13.4688C199.156 11.9375 201.82 11.1719 205.055 11.1719C208.289 11.1719 210.844 11.9609 212.719 13.5391C214.594 15.1172 215.555 17.2812 215.602 20.0312V31.2578C215.633 33.5859 215.992 35.3672 216.68 36.6016V37H208.781ZM203.836 31.8438C204.82 31.8438 205.633 31.6328 206.273 31.2109C206.93 30.7891 207.398 30.3125 207.68 29.7812V25.7266H205.383C202.633 25.7266 201.258 26.9609 201.258 29.4297C201.258 30.1484 201.5 30.7344 201.984 31.1875C202.469 31.625 203.086 31.8438 203.836 31.8438ZM232.617 30.9062C233.883 29.6406 234.797 28.3828 235.359 27.1328C235.938 25.8828 236.273 24.4297 236.367 22.7734L236.438 21.0391L236.578 11.6406H256.336V30.9062H260.133V44.6875H252.211V37H238.477V44.6875H230.367L230.344 30.9062H232.617ZM241.711 30.9062H248.461V17.7344H244.406L244.383 19.8203C244.273 24.3828 243.383 28.0781 241.711 30.9062ZM275.109 37.4688C271.219 37.4688 268.07 36.3125 265.664 34C263.258 31.6719 262.055 28.6484 262.055 24.9297V24.2734C262.055 21.6797 262.531 19.3906 263.484 17.4062C264.453 15.4219 265.859 13.8906 267.703 12.8125C269.547 11.7188 271.734 11.1719 274.266 11.1719C277.828 11.1719 280.641 12.2812 282.703 14.5C284.766 16.7031 285.797 19.7812 285.797 23.7344V26.8047H270.094C270.375 28.2266 270.992 29.3438 271.945 30.1562C272.898 30.9688 274.133 31.375 275.648 31.375C278.148 31.375 280.102 30.5 281.508 28.75L285.117 33.0156C284.133 34.375 282.734 35.4609 280.922 36.2734C279.125 37.0703 277.188 37.4688 275.109 37.4688ZM274.219 17.2656C271.906 17.2656 270.531 18.7969 270.094 21.8594H278.062V21.25C278.094 19.9844 277.773 19.0078 277.102 18.3203C276.43 17.6172 275.469 17.2656 274.219 17.2656ZM310.922 17.6875H302.93V37H294.984V17.6875H287.109V11.6406H310.922V17.6875ZM327.797 37C327.516 36.4844 327.266 35.7266 327.047 34.7266C325.594 36.5547 323.562 37.4688 320.953 37.4688C318.562 37.4688 316.531 36.75 314.859 35.3125C313.188 33.8594 312.352 32.0391 312.352 29.8516C312.352 27.1016 313.367 25.0234 315.398 23.6172C317.43 22.2109 320.383 21.5078 324.258 21.5078H326.695V20.1719C326.695 17.8438 325.688 16.6797 323.672 16.6797C321.797 16.6797 320.859 17.6016 320.859 19.4453H312.961C312.961 16.9922 314 15 316.078 13.4688C318.172 11.9375 320.836 11.1719 324.07 11.1719C327.305 11.1719 329.859 11.9609 331.734 13.5391C333.609 15.1172 334.57 17.2812 334.617 20.0312V31.2578C334.648 33.5859 335.008 35.3672 335.695 36.6016V37H327.797ZM322.852 31.8438C323.836 31.8438 324.648 31.6328 325.289 31.2109C325.945 30.7891 326.414 30.3125 326.695 29.7812V25.7266H324.398C321.648 25.7266 320.273 26.9609 320.273 29.4297C320.273 30.1484 320.516 30.7344 321 31.1875C321.484 31.625 322.102 31.8438 322.852 31.8438ZM361.664 11.6406V37H353.766V17.7344H349.031L348.609 25.4922C348.312 29.3359 347.445 32.2109 346.008 34.1172C344.57 36.0234 342.438 36.9844 339.609 37H337.125L337.031 30.9531L337.852 30.8594C338.898 30.7344 339.672 30.0391 340.172 28.7734C340.688 27.4922 341.016 25.5625 341.156 22.9844L341.648 11.6406H361.664ZM378.234 37.4688C374.344 37.4688 371.195 36.3125 368.789 34C366.383 31.6719 365.18 28.6484 365.18 24.9297V24.2734C365.18 21.6797 365.656 19.3906 366.609 17.4062C367.578 15.4219 368.984 13.8906 370.828 12.8125C372.672 11.7188 374.859 11.1719 377.391 11.1719C380.953 11.1719 383.766 12.2812 385.828 14.5C387.891 16.7031 388.922 19.7812 388.922 23.7344V26.8047H373.219C373.5 28.2266 374.117 29.3438 375.07 30.1562C376.023 30.9688 377.258 31.375 378.773 31.375C381.273 31.375 383.227 30.5 384.633 28.75L388.242 33.0156C387.258 34.375 385.859 35.4609 384.047 36.2734C382.25 37.0703 380.312 37.4688 378.234 37.4688ZM377.344 17.2656C375.031 17.2656 373.656 18.7969 373.219 21.8594H381.188V21.25C381.219 19.9844 380.898 19.0078 380.227 18.3203C379.555 17.6172 378.594 17.2656 377.344 17.2656ZM406.875 11.6406H414.797V37H406.875V22.2344L399.914 37H391.969V11.6406H399.914V26.3594L406.875 11.6406ZM412.242 0.953125C412.242 3.09375 411.453 4.82812 409.875 6.15625C408.297 7.48438 406.195 8.14844 403.57 8.14844C400.945 8.14844 398.844 7.48438 397.266 6.15625C395.688 4.82812 394.898 3.09375 394.898 0.953125H400.266C400.266 1.89062 400.555 2.625 401.133 3.15625C401.727 3.67188 402.539 3.92969 403.57 3.92969C404.602 3.92969 405.398 3.67969 405.961 3.17969C406.539 2.66406 406.828 1.92187 406.828 0.953125H412.242ZM441.703 31.375C442.812 31.375 443.672 31.0781 444.281 30.4844C444.891 29.875 445.188 29.0312 445.172 27.9531H452.578C452.578 30.7344 451.578 33.0156 449.578 34.7969C447.594 36.5781 445.031 37.4688 441.891 37.4688C438.203 37.4688 435.297 36.3125 433.172 34C431.047 31.6875 429.984 28.4844 429.984 24.3906V24.0625C429.984 21.5 430.453 19.2422 431.391 17.2891C432.344 15.3203 433.711 13.8125 435.492 12.7656C437.273 11.7031 439.383 11.1719 441.82 11.1719C445.117 11.1719 447.734 12.0859 449.672 13.9141C451.609 15.7422 452.578 18.2188 452.578 21.3438H445.172C445.172 20.0312 444.852 19.0234 444.211 18.3203C443.57 17.6172 442.711 17.2656 441.633 17.2656C439.586 17.2656 438.391 18.5703 438.047 21.1797C437.938 22.0078 437.883 23.1484 437.883 24.6016C437.883 27.1484 438.188 28.9141 438.797 29.8984C439.406 30.8828 440.375 31.375 441.703 31.375ZM487.617 30.625H476.344L474.375 37H465.586L478.102 2.875H485.836L498.445 37H489.609L487.617 30.625ZM478.312 24.2734H485.648L481.969 12.4375L478.312 24.2734ZM509.18 30.6719H523.5V37H500.953V2.875H509.18V30.6719ZM535.195 30.6719H549.516V37H526.969V2.875H535.195V30.6719ZM574.148 22.5391H561.211V30.6719H576.492V37H552.984V2.875H576.539V9.22656H561.211V16.4219H574.148V22.5391ZM607.781 32.7812C606.516 34.1875 604.664 35.3203 602.227 36.1797C599.789 37.0391 597.117 37.4688 594.211 37.4688C589.742 37.4688 586.172 36.1016 583.5 33.3672C580.828 30.6328 579.398 26.8281 579.211 21.9531L579.188 19C579.188 15.6406 579.781 12.7109 580.969 10.2109C582.156 7.69531 583.852 5.76562 586.055 4.42188C588.273 3.0625 590.836 2.38281 593.742 2.38281C597.992 2.38281 601.289 3.35938 603.633 5.3125C605.992 7.25 607.367 10.1484 607.758 14.0078H599.836C599.555 12.1016 598.945 10.7422 598.008 9.92969C597.07 9.11719 595.742 8.71094 594.023 8.71094C591.961 8.71094 590.367 9.58594 589.242 11.3359C588.117 13.0859 587.547 15.5859 587.531 18.8359V20.8984C587.531 24.3047 588.109 26.8672 589.266 28.5859C590.438 30.2891 592.273 31.1406 594.773 31.1406C596.914 31.1406 598.508 30.6641 599.555 29.7109V24.4141H593.836V18.7656H607.781V32.7812ZM625.242 24.9531H620.789V37H612.562V2.875H625.992C630.039 2.875 633.203 3.77344 635.484 5.57031C637.766 7.36719 638.906 9.90625 638.906 13.1875C638.906 15.5625 638.422 17.5312 637.453 19.0938C636.5 20.6562 635 21.9219 632.953 22.8906L640.078 36.6484V37H631.266L625.242 24.9531ZM620.789 18.6016H625.992C627.555 18.6016 628.727 18.1953 629.508 17.3828C630.305 16.5547 630.703 15.4062 630.703 13.9375C630.703 12.4688 630.305 11.3203 629.508 10.4922C628.711 9.64844 627.539 9.22656 625.992 9.22656H620.789V18.6016ZM672.773 20.6406C672.773 23.9688 672.156 26.9141 670.922 29.4766C669.688 32.0391 667.93 34.0156 665.648 35.4062C663.383 36.7812 660.797 37.4688 657.891 37.4688C654.984 37.4688 652.406 36.8047 650.156 35.4766C647.906 34.1328 646.148 32.2188 644.883 29.7344C643.633 27.25 642.977 24.3984 642.914 21.1797V19.2578C642.914 15.9141 643.523 12.9688 644.742 10.4219C645.977 7.85938 647.734 5.88281 650.016 4.49219C652.312 3.10156 654.922 2.40625 657.844 2.40625C660.734 2.40625 663.312 3.09375 665.578 4.46875C667.844 5.84375 669.602 7.80469 670.852 10.3516C672.117 12.8828 672.758 15.7891 672.773 19.0703V20.6406ZM664.406 19.2109C664.406 15.8203 663.836 13.25 662.695 11.5C661.57 9.73438 659.953 8.85156 657.844 8.85156C653.719 8.85156 651.539 11.9453 651.305 18.1328L651.281 20.6406C651.281 23.9844 651.836 26.5547 652.945 28.3516C654.055 30.1484 655.703 31.0469 657.891 31.0469C659.969 31.0469 661.57 30.1641 662.695 28.3984C663.82 26.6328 664.391 24.0938 664.406 20.7812V19.2109ZM678.68 29.3359C679.93 29.3359 680.969 29.7109 681.797 30.4609C682.625 31.1953 683.039 32.1406 683.039 33.2969C683.039 34.4531 682.625 35.4062 681.797 36.1562C680.969 36.8906 679.93 37.2578 678.68 37.2578C677.414 37.2578 676.367 36.8828 675.539 36.1328C674.727 35.3828 674.32 34.4375 674.32 33.2969C674.32 32.1562 674.727 31.2109 675.539 30.4609C676.367 29.7109 677.414 29.3359 678.68 29.3359ZM696.914 25.4219V37H688.688V2.875H702.305C704.914 2.875 707.219 3.35938 709.219 4.32812C711.234 5.28125 712.789 6.64844 713.883 8.42969C714.992 10.1953 715.547 12.2031 715.547 14.4531C715.547 17.7812 714.352 20.4453 711.961 22.4453C709.586 24.4297 706.32 25.4219 702.164 25.4219H696.914ZM696.914 19.0703H702.305C703.898 19.0703 705.109 18.6719 705.938 17.875C706.781 17.0781 707.203 15.9531 707.203 14.5C707.203 12.9062 706.773 11.6328 705.914 10.6797C705.055 9.72656 703.883 9.24219 702.398 9.22656H696.914V19.0703ZM728.18 30.6719H742.5V37H719.953V2.875H728.18V30.6719Z" fill="white"/>
</svg>
